<svg xmlns="http://www.w3.org/2000/svg" width="344" height="88" fill="none" viewBox="0 0 344 88">
  <path fill="#6767A4" d="M72.9 50.86c-.84 3.593-2.287 6.487-4.34 8.68-2.007 2.193-4.457 3.78-7.35 4.76-2.893.933-6.113 1.4-9.66 1.4-4.853 0-9.053-.933-12.6-2.8-3.5-1.867-6.207-4.573-8.12-8.12-1.867-3.547-2.8-7.84-2.8-12.88 0-5.04.933-9.333 2.8-12.88 1.913-3.547 4.62-6.253 8.12-8.12 3.547-1.867 7.747-2.8 12.6-2.8 3.407 0 6.58.49 9.52 1.47 2.94.933 5.413 2.427 7.42 4.48 2.053 2.053 3.407 4.737 4.06 8.05l-14 5.46c-.373-3.033-1.143-4.993-2.31-5.88-1.12-.887-2.543-1.33-4.27-1.33-1.587 0-2.94.42-4.06 1.26-1.073.793-1.89 2.053-2.45 3.78-.513 1.68-.77 3.85-.77 6.51 0 2.613.233 4.783.7 6.51.513 1.727 1.33 3.01 2.45 3.85 1.12.793 2.613 1.19 4.48 1.19 1.68 0 3.057-.49 4.13-1.47 1.073-1.027 1.75-2.637 2.03-4.83l14.42 3.71Zm47.634-32.06-16.17 30.17V65h-16.31V48.97L71.884 18.8h16.24l4.9 10.57 3.29 8.4 3.29-8.4 4.9-10.57h16.03Z"/>
  <path fill="#000" d="M149.156 18.8c4.154 0 7.677.63 10.57 1.89 2.894 1.26 5.087 3.103 6.58 5.53 1.494 2.427 2.24 5.39 2.24 8.89 0 3.5-.746 6.463-2.24 8.89-1.493 2.427-3.686 4.27-6.58 5.53-2.893 1.26-6.416 1.89-10.57 1.89h-8.19V65h-16.31V18.8h24.5Zm-2.66 21.07c1.774 0 3.174-.373 4.2-1.12 1.027-.793 1.54-2.007 1.54-3.64s-.513-2.823-1.54-3.57c-1.026-.793-2.426-1.19-4.2-1.19h-5.53v9.52h5.53ZM219.37 18.8V65h-16.31V18.8h16.31Zm-28.98 0V65h-16.31V18.8h16.31Zm21.7 17.01v11.97h-30.17V35.81h30.17ZM226.375 65V18.8h38.36v11.97h-22.05v5.74h17.78v11.06h-17.78v5.46h22.89V65h-39.2Zm68.878-46.2c6.02 0 10.64 1.353 13.86 4.06 3.22 2.66 4.83 6.207 4.83 10.64 0 5.087-1.586 8.913-4.76 11.48-3.126 2.567-7.7 3.85-13.72 3.85l-1.61.84h-7.7V65h-15.96V18.8h25.06Zm-2.8 20.16c1.727 0 3.01-.303 3.85-.91.887-.653 1.33-1.773 1.33-3.36 0-1.54-.443-2.637-1.33-3.29-.84-.653-2.123-.98-3.85-.98h-6.3v8.54h6.3Zm9.66 3.43L316.533 65h-17.71l-10.78-20.23 14.07-2.38ZM0 15h15.212v13.539H0z"/>
  <path fill="#6767A4" d="M320 15h15.212v13.539H320zM8.212 15h15.212v13.539H8.212z"/>
  <path fill="#000" d="M328.212 15h15.212v13.539h-15.212z"/>
  <path fill="#6767A4" d="M0 37h15.212v13.539H0z"/>
  <path fill="#000" d="M320 37h15.212v13.539H320zM8.212 37h15.212v13.539H8.212z"/>
  <path fill="#6767A4" d="M328.212 37h15.212v13.539h-15.212z"/>
  <path fill="#000" d="M0 59h15.212v13.539H0z"/>
  <path fill="#6767A4" d="M320 59h15.212v13.539H320zM8.212 58.962h15.213V72.5H8.212V58.962Z"/>
  <path fill="#000" d="M328.212 58.962h15.213V72.5h-15.213V58.962Z"/>
</svg>
